<svg width="512" height="512" xmlns="http://www.w3.org/2000/svg">
 <g>
  <title>background</title>
  <rect x="-1" y="-1" width="514" height="514" id="canvas_background" fill="none"/>
 </g>

 <g>
  <title>Layer 1</title>
  <path id="svg_6" d="m202.5,45c0,0 -23,-30 -23.5,-30c0.5,0 -26.5,-4 -27,-4c0.5,0 -22.5,11 -23,11c0.5,0 -9.5,15 -9.5,15c0,0 -11,19 -11,19c0,0 -37,0 -37.5,0c0.5,0 -21.5,1 -22,1c0.5,0 -7.5,391 -7.5,391c0,0 -34,1 -34.5,1c0.5,0 16.5,44 16.5,44c0,0 85,13 84.5,13c0.5,0 340.5,-6 340.5,-6c0,0 37,-10 36.5,-10c0.5,0 14.5,-35 14,-35c0.5,0 1.5,-44 1,-44c0.5,0 1.5,-355 1.5,-355c0,0 -78,-2 -78,-2c0,0 -19,-39 -19,-39c0,0 -40,-1 -40,-1c0,0 -27,18 -27,18c0,0 -5,21 -5,21c0,0 -130,-8 -130,-8z" stroke-opacity="null" stroke-width="1.5" stroke="#000" fill="#ffffff"/>
  <path d="m394.25,448.125l-275.812,0c0,29.754 24.121,53.875 53.875,53.875l0,0l273.675,0l2.137,0c-29.754,0 -53.875,-24.121 -53.875,-53.875z" fill="#2E9DE3" id="svg_1"/>
  <polygon points="502,134.333 502,84.333 412.492,84.333 223.157,84.333 173,84.333 173,134.333 " fill="#EF3C3C" id="svg_2"/>
  <path d="m163,390c-2.63,0 -5.21,1.069 -7.07,2.93c-1.86,1.86 -2.93,4.43 -2.93,7.07c0,2.63 1.07,5.21 2.93,7.069c1.86,1.86 4.44,2.931 7.07,2.931s5.21,-1.07 7.07,-2.931c1.86,-1.859 2.93,-4.439 2.93,-7.069s-1.07,-5.21 -2.93,-7.07s-4.44,-2.93 -7.07,-2.93z" id="svg_7"/>
  <path d="m502,44l-71.596,0c-4.705,-25.012 -26.698,-44 -53.057,-44s-48.352,18.988 -53.057,44l-113.56,0c-4.705,-25.012 -26.698,-44 -53.057,-44s-48.352,18.988 -53.057,44l-60.793,0c-5.523,0 -10,4.478 -10,10l0,384.125l-23.823,0c-5.523,0 -10,4.478 -10,10c0,35.221 28.654,63.875 63.875,63.875c0,0 383.696,0 384.25,0c35.221,0 63.875,-28.654 63.875,-63.875l0,-394.125c0,-5.522 -4.477,-10 -10,-10zm-438.125,448c-20.754,0 -38.188,-14.484 -42.726,-33.875l363.882,0c2.053,13.005 8.045,24.718 16.712,33.875l-337.868,0zm428.125,-43.875c0,24.192 -19.682,43.875 -43.875,43.875s-43.875,-19.683 -43.875,-43.875c0,-5.522 -4.477,-10 -10,-10l-340.427,0l0,-28.125l69.335,0c5.523,0 10,-4.478 10,-10s-4.477,-10 -10,-10l-69.335,0l0,-243l360.51,0c5.523,0 10,-4.478 10,-10s-4.477,-10 -10,-10l-360.51,0l0,-63l50.794,0c4.705,25.012 26.698,44 53.057,44c5.523,0 10,-4.478 10,-10s-4.477,-10 -10,-10c-18.748,0 -34,-15.252 -34,-34s15.252,-34 34,-34c15.269,0 28.217,10.117 32.497,24l-32.497,0c-5.523,0 -10,4.478 -10,10s4.477,10 10,10l166.617,0c4.705,25.012 26.698,44 53.057,44c5.523,0 10,-4.478 10,-10s-4.477,-10 -10,-10c-18.748,0 -34,-15.252 -34,-34s15.252,-34 34,-34c15.269,0 28.217,10.117 32.497,24l-32.497,0c-5.523,0 -10,4.478 -10,10s4.477,10 10,10l114.652,0l0,384.125z" id="svg_8"/>
  <path d="m461.24,147c2.63,0 5.21,-1.07 7.07,-2.931c1.86,-1.859 2.93,-4.439 2.93,-7.069s-1.07,-5.21 -2.93,-7.07s-4.44,-2.93 -7.07,-2.93s-5.21,1.069 -7.07,2.93s-2.93,4.44 -2.93,7.07s1.07,5.21 2.93,7.069c1.86,1.861 4.44,2.931 7.07,2.931z" id="svg_9"/>
  <path d="m320.841,206.449c-4.824,-2.691 -10.915,-0.961 -13.604,3.862l-86.246,154.635c-2.69,4.823 -0.961,10.914 3.862,13.604c1.542,0.86 3.213,1.269 4.862,1.269c3.508,0 6.913,-1.85 8.743,-5.131l86.246,-154.635c2.69,-4.823 0.961,-10.913 -3.863,-13.604z" id="svg_10" transform="rotate(-29 272.84750366210915,292.49963378906244) "/>
  <g id="svg_11"/>
  <g id="svg_12"/>
  <g id="svg_13"/>
  <g id="svg_14"/>
  <g id="svg_15"/>
  <g id="svg_16"/>
  <g id="svg_17"/>
  <g id="svg_18"/>
  <g id="svg_19"/>
  <g id="svg_20"/>
  <g id="svg_21"/>
  <g id="svg_22"/>
  <g id="svg_23"/>
  <g id="svg_24"/>
  <g id="svg_25"/>
  <path d="m317.841,205.449c-4.824,-2.691 -10.915,-0.961 -13.604,3.862l-86.246,154.635c-2.69,4.823 -0.961,10.914 3.862,13.604c1.542,0.86 3.213,1.269 4.862,1.269c3.508,0 6.913,-1.85 8.743,-5.131l86.246,-154.635c2.69,-4.823 0.961,-10.913 -3.863,-13.604z" id="svg_27" transform="rotate(-120 269.8475036621094,291.4996337890625) "/>
 </g>
</svg>